REM DIRINDEX 1\2\4,1\2\5,1\2\6,1\3\7,1\3\8
REM DIRNAME folder01,folder02,folder03,folder04,folder05,folder06,folder07,folder08
TITLE ""
FILE "018_Lesson 15_Output_Stage.mp3" MP3
  TRACK 01 AUDIO
    TITLE "0:"
    INDEX 01 00:00:00
  TRACK 02 AUDIO
    TITLE "6:cjc128_0970"
    INDEX 01 00:00:11
  TRACK 03 AUDIO
    TITLE "0:"
    INDEX 01 00:03:23
  TRACK 04 AUDIO
    TITLE "6:cjc128_0971"
    INDEX 01 00:03:35
  TRACK 05 AUDIO
    TITLE "0:"
    INDEX 01 00:05:22
  TRACK 06 AUDIO
    TITLE "4:cjc128_0972"
    INDEX 01 00:05:73
  TRACK 07 AUDIO
    TITLE "0:"
    INDEX 01 00:08:13
  TRACK 08 AUDIO
    TITLE "5:cjc128_0973"
    INDEX 01 00:10:55
  TRACK 09 AUDIO
    TITLE "0:"
    INDEX 01 00:12:65
  TRACK 10 AUDIO
    TITLE "6:cjc128_0974"
    INDEX 01 00:13:51
  TRACK 11 AUDIO
    TITLE "0:"
    INDEX 01 00:15:38
  TRACK 12 AUDIO
    TITLE "4:cjc128_0975"
    INDEX 01 00:16:18
  TRACK 13 AUDIO
    TITLE "0:"
    INDEX 01 00:17:27
  TRACK 14 AUDIO
    TITLE "5:cjc128_0976"
    INDEX 01 00:18:74
  TRACK 15 AUDIO
    TITLE "0:"
    INDEX 01 00:20:06
  TRACK 16 AUDIO
    TITLE "6:cjc128_0977"
    INDEX 01 00:20:63
  TRACK 17 AUDIO
    TITLE "0:"
    INDEX 01 00:22:36
  TRACK 18 AUDIO
    TITLE "4:cjc128_0978"
    INDEX 01 00:23:16
  TRACK 19 AUDIO
    TITLE "0:"
    INDEX 01 00:25:50
  TRACK 20 AUDIO
    TITLE "5:cjc128_0979"
    INDEX 01 00:28:53
  TRACK 21 AUDIO
    TITLE "0:"
    INDEX 01 00:31:18
  TRACK 22 AUDIO
    TITLE "6:cjc128_0980"
    INDEX 01 00:32:03
  TRACK 23 AUDIO
    TITLE "0:"
    INDEX 01 00:33:69
  TRACK 24 AUDIO
    TITLE "4:cjc128_0981"
    INDEX 01 00:34:43
  TRACK 25 AUDIO
    TITLE "0:"
    INDEX 01 00:36:38
  TRACK 26 AUDIO
    TITLE "5:cjc128_0982"
    INDEX 01 00:39:03
  TRACK 27 AUDIO
    TITLE "0:"
    INDEX 01 00:41:00
  TRACK 28 AUDIO
    TITLE "6:cjc128_0983"
    INDEX 01 00:41:51
  TRACK 29 AUDIO
    TITLE "0:"
    INDEX 01 00:43:48
  TRACK 30 AUDIO
    TITLE "4:cjc128_0984"
    INDEX 01 00:44:34
  TRACK 31 AUDIO
    TITLE "0:"
    INDEX 01 00:47:09
  TRACK 32 AUDIO
    TITLE "5:cjc128_0985"
    INDEX 01 00:50:33
  TRACK 33 AUDIO
    TITLE "0:"
    INDEX 01 00:53:13
  TRACK 34 AUDIO
    TITLE "6:cjc128_0986"
    INDEX 01 00:54:05
  TRACK 35 AUDIO
    TITLE "0:"
    INDEX 01 00:56:06
  TRACK 36 AUDIO
    TITLE "4:cjc128_0987"
    INDEX 01 00:56:59
  TRACK 37 AUDIO
    TITLE "0:"
    INDEX 01 00:58:54
  TRACK 38 AUDIO
    TITLE "5:cjc128_0988"
    INDEX 01 01:00:57
  TRACK 39 AUDIO
    TITLE "0:"
    INDEX 01 01:02:14
  TRACK 40 AUDIO
    TITLE "6:cjc128_0989"
    INDEX 01 01:03:04
  TRACK 41 AUDIO
    TITLE "0:"
    INDEX 01 01:05:01
  TRACK 42 AUDIO
    TITLE "4:cjc128_0990"
    INDEX 01 01:05:60
  TRACK 43 AUDIO
    TITLE "0:"
    INDEX 01 01:09:07
  TRACK 44 AUDIO
    TITLE "5:cjc128_0991"
    INDEX 01 01:12:30
  TRACK 45 AUDIO
    TITLE "0:"
    INDEX 01 01:14:74
  TRACK 46 AUDIO
    TITLE "6:cjc128_0992"
    INDEX 01 01:15:54
  TRACK 47 AUDIO
    TITLE "0:"
    INDEX 01 01:17:69
  TRACK 48 AUDIO
    TITLE "4:cjc128_0993"
    INDEX 01 01:18:45
  TRACK 49 AUDIO
    TITLE "0:"
    INDEX 01 01:21:29
  TRACK 50 AUDIO
    TITLE "5:cjc128_0994"
    INDEX 01 01:24:34
  TRACK 51 AUDIO
    TITLE "0:"
    INDEX 01 01:26:70
  TRACK 52 AUDIO
    TITLE "6:cjc128_0995"
    INDEX 01 01:27:42
  TRACK 53 AUDIO
    TITLE "0:"
    INDEX 01 01:29:43
  TRACK 54 AUDIO
    TITLE "4:cjc128_0996"
    INDEX 01 01:30:24
  TRACK 55 AUDIO
    TITLE "0:"
    INDEX 01 01:31:57
  TRACK 56 AUDIO
    TITLE "5:cjc128_0997"
    INDEX 01 01:34:05
  TRACK 57 AUDIO
    TITLE "0:"
    INDEX 01 01:35:55
  TRACK 58 AUDIO
    TITLE "6:cjc128_0998"
    INDEX 01 01:36:29
  TRACK 59 AUDIO
    TITLE "0:"
    INDEX 01 01:38:30
  TRACK 60 AUDIO
    TITLE "4:cjc128_0999"
    INDEX 01 01:39:10
  TRACK 61 AUDIO
    TITLE "0:"
    INDEX 01 01:41:01
  TRACK 62 AUDIO
    TITLE "5:cjc128_1000"
    INDEX 01 01:43:17
  TRACK 63 AUDIO
    TITLE "0:"
    INDEX 01 01:45:30
  TRACK 64 AUDIO
    TITLE "6:cjc128_1001"
    INDEX 01 01:46:02
  TRACK 65 AUDIO
    TITLE "0:"
    INDEX 01 01:47:70
  TRACK 66 AUDIO
    TITLE "4:cjc128_1002"
    INDEX 01 01:48:38
  TRACK 67 AUDIO
    TITLE "0:"
    INDEX 01 01:51:36
  TRACK 68 AUDIO
    TITLE "5:cjc128_1003"
    INDEX 01 01:55:15
  TRACK 69 AUDIO
    TITLE "0:"
    INDEX 01 01:58:38
  TRACK 70 AUDIO
    TITLE "6:cjc128_1004"
    INDEX 01 01:59:12
  TRACK 71 AUDIO
    TITLE "0:"
    INDEX 01 02:01:13
  TRACK 72 AUDIO
    TITLE "4:cjc128_1005"
    INDEX 01 02:01:64
  TRACK 73 AUDIO
    TITLE "0:"
    INDEX 01 02:05:54
  TRACK 74 AUDIO
    TITLE "5:cjc128_1006"
    INDEX 01 02:09:66
  TRACK 75 AUDIO
    TITLE "0:"
    INDEX 01 02:13:34
  TRACK 76 AUDIO
    TITLE "6:cjc128_1007"
    INDEX 01 02:14:16
  TRACK 77 AUDIO
    TITLE "0:"
    INDEX 01 02:15:60
  TRACK 78 AUDIO
    TITLE "4:cjc128_1008"
    INDEX 01 02:16:48
  TRACK 79 AUDIO
    TITLE "0:"
    INDEX 01 02:19:52
  TRACK 80 AUDIO
    TITLE "5:cjc128_1009"
    INDEX 01 02:22:25
  TRACK 81 AUDIO
    TITLE "0:"
    INDEX 01 02:24:28
  TRACK 82 AUDIO
    TITLE "6:cjc128_1010"
    INDEX 01 02:25:08
  TRACK 83 AUDIO
    TITLE "0:"
    INDEX 01 02:27:01
  TRACK 84 AUDIO
    TITLE "4:cjc128_1011"
    INDEX 01 02:27:56
  TRACK 85 AUDIO
    TITLE "0:"
    INDEX 01 02:30:40
  TRACK 86 AUDIO
    TITLE "5:cjc128_1012"
    INDEX 01 02:33:05
  TRACK 87 AUDIO
    TITLE "0:"
    INDEX 01 02:35:22
  TRACK 88 AUDIO
    TITLE "6:cjc128_1013"
    INDEX 01 02:35:67
  TRACK 89 AUDIO
    TITLE "0:"
    INDEX 01 02:37:66
  TRACK 90 AUDIO
    TITLE "4:cjc128_1014"
    INDEX 01 02:38:52
  TRACK 91 AUDIO
    TITLE "0:"
    INDEX 01 02:41:54
  TRACK 92 AUDIO
    TITLE "5:cjc128_1015"
    INDEX 01 02:45:26
  TRACK 93 AUDIO
    TITLE "0:"
    INDEX 01 02:48:30
  TRACK 94 AUDIO
    TITLE "6:cjc128_1016"
    INDEX 01 02:49:04
  TRACK 95 AUDIO
    TITLE "0:"
    INDEX 01 02:51:01
  TRACK 96 AUDIO
    TITLE "4:cjc128_1017"
    INDEX 01 02:51:46
  TRACK 97 AUDIO
    TITLE "0:"
    INDEX 01 02:53:00
  TRACK 98 AUDIO
    TITLE "5:cjc128_1018"
    INDEX 01 02:54:58
  TRACK 99 AUDIO
    TITLE "0:"
    INDEX 01 02:56:02
  TRACK 100 AUDIO
    TITLE "6:cjc128_1019"
    INDEX 01 02:56:51
  TRACK 101 AUDIO
    TITLE "0:"
    INDEX 01 02:58:46
  TRACK 102 AUDIO
    TITLE "4:cjc128_1020"
    INDEX 01 02:59:30
  TRACK 103 AUDIO
    TITLE "0:"
    INDEX 01 03:01:27
  TRACK 104 AUDIO
    TITLE "5:cjc128_1021"
    INDEX 01 03:03:53
  TRACK 105 AUDIO
    TITLE "0:"
    INDEX 01 03:05:43
  TRACK 106 AUDIO
    TITLE "6:cjc128_1022"
    INDEX 01 03:06:15
  TRACK 107 AUDIO
    TITLE "0:"
    INDEX 01 03:08:08
  TRACK 108 AUDIO
    TITLE "4:cjc128_1023"
    INDEX 01 03:08:60
  TRACK 109 AUDIO
    TITLE "0:"
    INDEX 01 03:10:16
  TRACK 110 AUDIO
    TITLE "5:cjc128_1024"
    INDEX 01 03:12:00
  TRACK 111 AUDIO
    TITLE "0:"
    INDEX 01 03:13:26
  TRACK 112 AUDIO
    TITLE "6:cjc128_1025"
    INDEX 01 03:14:00
  TRACK 113 AUDIO
    TITLE "0:"
    INDEX 01 03:15:72
  TRACK 114 AUDIO
    TITLE "4:cjc128_1026"
    INDEX 01 03:16:54
  TRACK 115 AUDIO
    TITLE "0:"
    INDEX 01 03:18:63
  TRACK 116 AUDIO
    TITLE "5:cjc128_1027"
    INDEX 01 03:21:71
  TRACK 117 AUDIO
    TITLE "0:"
    INDEX 01 03:24:30
  TRACK 118 AUDIO
    TITLE "6:cjc128_1028"
    INDEX 01 03:25:10
  TRACK 119 AUDIO
    TITLE "0:"
    INDEX 01 03:27:03
  TRACK 120 AUDIO
    TITLE "4:cjc128_1029"
    INDEX 01 03:27:50
  TRACK 121 AUDIO
    TITLE "0:"
    INDEX 01 03:29:21
  TRACK 122 AUDIO
    TITLE "5:cjc128_1030"
    INDEX 01 03:31:05
  TRACK 123 AUDIO
    TITLE "0:"
    INDEX 01 03:32:34
  TRACK 124 AUDIO
    TITLE "6:cjc128_1031"
    INDEX 01 03:33:09
  TRACK 125 AUDIO
    TITLE "0:"
    INDEX 01 03:34:70
  TRACK 126 AUDIO
    TITLE "4:cjc128_1032"
    INDEX 01 03:35:50
  TRACK 127 AUDIO
    TITLE "0:"
    INDEX 01 03:37:52
  TRACK 128 AUDIO
    TITLE "5:cjc128_1033"
    INDEX 01 03:40:25
  TRACK 129 AUDIO
    TITLE "0:"
    INDEX 01 03:42:30
  TRACK 130 AUDIO
    TITLE "6:cjc128_1034"
    INDEX 01 03:43:08
  TRACK 131 AUDIO
    TITLE "0:"
    INDEX 01 03:45:01
  TRACK 132 AUDIO
    TITLE "4:cjc128_1035"
    INDEX 01 03:45:50
  TRACK 133 AUDIO
    TITLE "0:"
    INDEX 01 03:48:15
  TRACK 134 AUDIO
    TITLE "5:cjc128_1036"
    INDEX 01 03:51:29
  TRACK 135 AUDIO
    TITLE "0:"
    INDEX 01 03:54:16
  TRACK 136 AUDIO
    TITLE "6:cjc128_1037"
    INDEX 01 03:54:59
  TRACK 137 AUDIO
    TITLE "0:"
    INDEX 01 03:56:36
  TRACK 138 AUDIO
    TITLE "4:cjc128_1038"
    INDEX 01 03:57:20
  TRACK 139 AUDIO
    TITLE "0:"
    INDEX 01 03:59:60
  TRACK 140 AUDIO
    TITLE "5:cjc128_1039"
    INDEX 01 04:02:19
  TRACK 141 AUDIO
    TITLE "0:"
    INDEX 01 04:04:04
  TRACK 142 AUDIO
    TITLE "6:cjc128_1040"
    INDEX 01 04:04:63
  TRACK 143 AUDIO
    TITLE "0:"
    INDEX 01 04:06:48
  TRACK 144 AUDIO
    TITLE "4:cjc128_1041"
    INDEX 01 04:07:30
  TRACK 145 AUDIO
    TITLE "0:"
    INDEX 01 04:09:15
  TRACK 146 AUDIO
    TITLE "5:cjc128_1042"
    INDEX 01 04:11:34
  TRACK 147 AUDIO
    TITLE "0:"
    INDEX 01 04:13:09
  TRACK 148 AUDIO
    TITLE "6:cjc128_1043"
    INDEX 01 04:13:58
  TRACK 149 AUDIO
    TITLE "0:"
    INDEX 01 04:15:57
  TRACK 150 AUDIO
    TITLE "4:cjc128_1044"
    INDEX 01 04:16:41
  TRACK 151 AUDIO
    TITLE "0:"
    INDEX 01 04:18:49
  TRACK 152 AUDIO
    TITLE "5:cjc128_1045"
    INDEX 01 04:21:22
  TRACK 153 AUDIO
    TITLE "0:"
    INDEX 01 04:23:27
  TRACK 154 AUDIO
    TITLE "6:cjc128_1046"
    INDEX 01 04:24:03
  TRACK 155 AUDIO
    TITLE "0:"
    INDEX 01 04:26:00
  TRACK 156 AUDIO
    TITLE "4:cjc128_1047"
    INDEX 01 04:26:55
  TRACK 157 AUDIO
    TITLE "0:"
    INDEX 01 04:29:69
  TRACK 158 AUDIO
    TITLE "5:cjc128_1048"
    INDEX 01 04:33:23
  TRACK 159 AUDIO
    TITLE "0:"
    INDEX 01 04:36:18
  TRACK 160 AUDIO
    TITLE "6:cjc128_1049"
    INDEX 01 04:36:71
  TRACK 161 AUDIO
    TITLE "0:"
    INDEX 01 04:38:66
  TRACK 162 AUDIO
    TITLE "4:cjc128_1050"
    INDEX 01 04:39:50
  TRACK 163 AUDIO
    TITLE "0:"
    INDEX 01 04:42:18
  TRACK 164 AUDIO
    TITLE "5:cjc128_1051"
    INDEX 01 04:44:70
  TRACK 165 AUDIO
    TITLE "0:"
    INDEX 01 04:47:06
  TRACK 166 AUDIO
    TITLE "6:cjc128_1052"
    INDEX 01 04:47:57
  TRACK 167 AUDIO
    TITLE "0:"
    INDEX 01 04:49:62
  TRACK 168 AUDIO
    TITLE "4:cjc128_1053"
    INDEX 01 04:50:47
  TRACK 169 AUDIO
    TITLE "0:"
    INDEX 01 04:52:54
  TRACK 170 AUDIO
    TITLE "5:cjc128_1054"
    INDEX 01 04:55:07
  TRACK 171 AUDIO
    TITLE "0:"
    INDEX 01 04:56:68
  TRACK 172 AUDIO
    TITLE "6:cjc128_1055"
    INDEX 01 04:57:40
  TRACK 173 AUDIO
    TITLE "0:"
    INDEX 01 04:59:42
  TRACK 174 AUDIO
    TITLE "4:cjc128_1056"
    INDEX 01 05:00:26
  TRACK 175 AUDIO
    TITLE "0:"
    INDEX 01 05:02:56
  TRACK 176 AUDIO
    TITLE "5:cjc128_1057"
    INDEX 01 05:05:35
  TRACK 177 AUDIO
    TITLE "0:"
    INDEX 01 05:07:40
  TRACK 178 AUDIO
    TITLE "6:cjc128_1058"
    INDEX 01 05:08:20
  TRACK 179 AUDIO
    TITLE "0:"
    INDEX 01 05:10:27
  TRACK 180 AUDIO
    TITLE "4:cjc128_1059"
    INDEX 01 05:11:08
  TRACK 181 AUDIO
    TITLE "0:"
    INDEX 01 05:12:72
  TRACK 182 AUDIO
    TITLE "5:cjc128_1060"
    INDEX 01 05:15:28
  TRACK 183 AUDIO
    TITLE "0:"
    INDEX 01 05:17:15
  TRACK 184 AUDIO
    TITLE "6:cjc128_1061"
    INDEX 01 05:17:68
  TRACK 185 AUDIO
    TITLE "0:"
    INDEX 01 05:19:57
  TRACK 186 AUDIO
    TITLE "4:cjc128_1062"
    INDEX 01 05:20:33
  TRACK 187 AUDIO
    TITLE "0:"
    INDEX 01 05:22:40
  TRACK 188 AUDIO
    TITLE "5:cjc128_1063"
    INDEX 01 05:25:14
  TRACK 189 AUDIO
    TITLE "0:"
    INDEX 01 05:27:21
  TRACK 190 AUDIO
    TITLE "6:cjc128_1064"
    INDEX 01 05:27:72
  TRACK 191 AUDIO
    TITLE "0:"
    INDEX 01 05:29:69
  TRACK 192 AUDIO
    TITLE "4:cjc128_1065"
    INDEX 01 05:30:43
  TRACK 193 AUDIO
    TITLE "0:"
    INDEX 01 05:34:07
  TRACK 194 AUDIO
    TITLE "5:cjc128_1066"
    INDEX 01 05:37:37
  TRACK 195 AUDIO
    TITLE "0:"
    INDEX 01 05:40:18
  TRACK 196 AUDIO
    TITLE "6:cjc128_1067"
    INDEX 01 05:41:02
  TRACK 197 AUDIO
    TITLE "0:"
    INDEX 01 05:42:48
  TRACK 198 AUDIO
    TITLE "4:cjc128_1068"
    INDEX 01 05:43:34
  TRACK 199 AUDIO
    TITLE "0:"
    INDEX 01 05:45:66
  TRACK 200 AUDIO
    TITLE "5:cjc128_1069"
    INDEX 01 05:48:37
  TRACK 201 AUDIO
    TITLE "0:"
    INDEX 01 05:50:42
  TRACK 202 AUDIO
    TITLE "6:cjc128_1070"
    INDEX 01 05:51:12
  TRACK 203 AUDIO
    TITLE "0:"
    INDEX 01 05:53:09
  TRACK 204 AUDIO
    TITLE "4:cjc128_1071"
    INDEX 01 05:53:60
  TRACK 205 AUDIO
    TITLE "0:"
    INDEX 01 05:57:18
  TRACK 206 AUDIO
    TITLE "5:cjc128_1072"
    INDEX 01 06:00:54
  TRACK 207 AUDIO
    TITLE "0:"
    INDEX 01 06:03:52
